<svg width="27" height="12" viewBox="0 0 27 12" fill="none" xmlns="http://www.w3.org/2000/svg">
<g opacity="0.4">
<mask id="path-1-inside-1_2407_15783" fill="white">
<path fill-rule="evenodd" clip-rule="evenodd" d="M5.7 1H19.3C20.2266 1 20.8614 1.00078 21.3532 1.04096C21.8333 1.08018 22.0883 1.15192 22.2715 1.24524C22.6948 1.46095 23.039 1.80516 23.2548 2.22852C23.3481 2.41166 23.4198 2.66673 23.459 3.14684C23.4992 3.63862 23.5 4.27341 23.5 5.2V6.8C23.5 7.72659 23.4992 8.36138 23.459 8.85316C23.4198 9.33327 23.3481 9.58834 23.2548 9.77148C23.039 10.1948 22.6948 10.539 22.2715 10.7548C22.0883 10.8481 21.8333 10.9198 21.3532 10.959C20.8614 10.9992 20.2266 11 19.3 11H5.7C4.77341 11 4.13862 10.9992 3.64684 10.959C3.16673 10.9198 2.91166 10.8481 2.72852 10.7548C2.30516 10.539 1.96095 10.1948 1.74524 9.77148C1.65192 9.58834 1.58018 9.33327 1.54096 8.85316C1.50078 8.36138 1.5 7.72659 1.5 6.8V5.2C1.5 4.27341 1.50078 3.63862 1.54096 3.14684C1.58018 2.66673 1.65192 2.41166 1.74524 2.22852C1.96095 1.80516 2.30516 1.46095 2.72852 1.24524C2.91166 1.15192 3.16673 1.08018 3.64684 1.04096C4.13862 1.00078 4.77341 1 5.7 1ZM0.5 5.2C0.5 3.37983 0.5 2.46974 0.854229 1.77453C1.16582 1.163 1.663 0.665817 2.27453 0.354229C2.96974 0 3.87983 0 5.7 0H19.3C21.1202 0 22.0303 0 22.7255 0.354229C23.337 0.665817 23.8342 1.163 24.1458 1.77453C24.5 2.46974 24.5 3.37983 24.5 5.2V6.8C24.5 8.62017 24.5 9.53026 24.1458 10.2255C23.8342 10.837 23.337 11.3342 22.7255 11.6458C22.0303 12 21.1202 12 19.3 12H5.7C3.87983 12 2.96974 12 2.27453 11.6458C1.663 11.3342 1.16582 10.837 0.854229 10.2255C0.5 9.53026 0.5 8.62017 0.5 6.8V5.2ZM27 6C27 5.06808 26.3626 4.28503 25.5 4.06301V7.93699C26.3626 7.71497 27 6.93192 27 6Z"/>
</mask>
<path d="M21.3532 1.04096L21.2717 2.03764L21.3532 1.04096ZM22.2715 1.24524L21.8175 2.13624L21.8175 2.13624L22.2715 1.24524ZM23.2548 2.22852L24.1458 1.77453L24.1458 1.77453L23.2548 2.22852ZM23.459 3.14684L22.4624 3.22827V3.22827L23.459 3.14684ZM23.459 8.85316L22.4624 8.77173V8.77173L23.459 8.85316ZM23.2548 9.77148L24.1458 10.2255L24.1458 10.2255L23.2548 9.77148ZM22.2715 10.7548L21.8175 9.86376L21.8175 9.86376L22.2715 10.7548ZM21.3532 10.959L21.4346 11.9557L21.3532 10.959ZM3.64684 10.959L3.56541 11.9557L3.56541 11.9557L3.64684 10.959ZM2.72852 10.7548L3.18251 9.86376L3.18251 9.86376L2.72852 10.7548ZM1.74524 9.77148L0.854229 10.2255L0.854229 10.2255L1.74524 9.77148ZM1.54096 8.85316L2.53764 8.77173V8.77173L1.54096 8.85316ZM1.54096 3.14684L2.53764 3.22827L1.54096 3.14684ZM1.74524 2.22852L2.63624 2.68251L2.63624 2.68251L1.74524 2.22852ZM2.72852 1.24524L3.18251 2.13624L3.18251 2.13624L2.72852 1.24524ZM3.64684 1.04096L3.72827 2.03764H3.72827L3.64684 1.04096ZM0.854229 1.77453L1.74524 2.22852L0.854229 1.77453ZM2.27453 0.354229L2.72852 1.24524L2.27453 0.354229ZM22.7255 0.354229L23.1795 -0.536778V-0.536778L22.7255 0.354229ZM24.1458 1.77453L23.2548 2.22852V2.22852L24.1458 1.77453ZM24.1458 10.2255L23.2548 9.77148L24.1458 10.2255ZM22.7255 11.6458L22.2715 10.7548L22.7255 11.6458ZM2.27453 11.6458L2.72852 10.7548H2.72852L2.27453 11.6458ZM0.854229 10.2255L-0.0367777 10.6795L-0.0367776 10.6795L0.854229 10.2255ZM25.5 4.06301L25.7493 3.09457L24.5 2.77303V4.06301H25.5ZM25.5 7.93699H24.5V9.22696L25.7493 8.90543L25.5 7.93699ZM19.3 0H5.7V2H19.3V0ZM21.4346 0.0442787C20.8926 -7.92929e-06 20.2097 0 19.3 0V2C20.2435 2 20.8302 2.00156 21.2717 2.03764L21.4346 0.0442787ZM22.7255 0.35423C22.3776 0.176994 21.9761 0.0885226 21.4346 0.0442786L21.2717 2.03764C21.6904 2.07184 21.7991 2.12685 21.8175 2.13624L22.7255 0.35423ZM24.1458 1.77453C23.8342 1.163 23.337 0.665817 22.7255 0.354229L21.8175 2.13624C22.0527 2.25608 22.2439 2.44731 22.3638 2.68251L24.1458 1.77453ZM24.4557 3.06541C24.4115 2.52388 24.323 2.12237 24.1458 1.77453L22.3638 2.68251C22.3732 2.70095 22.4282 2.80959 22.4624 3.22827L24.4557 3.06541ZM24.5 5.2C24.5 4.29033 24.5 3.60745 24.4557 3.06541L22.4624 3.22827C22.4984 3.66978 22.5 4.2565 22.5 5.2H24.5ZM24.5 6.8V5.2H22.5V6.8H24.5ZM24.4557 8.93459C24.5 8.39255 24.5 7.70967 24.5 6.8H22.5C22.5 7.7435 22.4984 8.33022 22.4624 8.77173L24.4557 8.93459ZM24.1458 10.2255C24.323 9.87763 24.4115 9.47612 24.4557 8.93459L22.4624 8.77173C22.4282 9.19041 22.3732 9.29905 22.3638 9.31749L24.1458 10.2255ZM22.7255 11.6458C23.337 11.3342 23.8342 10.837 24.1458 10.2255L22.3638 9.31749C22.2439 9.55269 22.0527 9.74392 21.8175 9.86376L22.7255 11.6458ZM21.4346 11.9557C21.9761 11.9115 22.3776 11.823 22.7255 11.6458L21.8175 9.86376C21.7991 9.87315 21.6904 9.92815 21.2717 9.96236L21.4346 11.9557ZM19.3 12C20.2097 12 20.8926 12 21.4346 11.9557L21.2717 9.96236C20.8302 9.99844 20.2435 10 19.3 10V12ZM5.7 12H19.3V10H5.7V12ZM3.56541 11.9557C4.10745 12 4.79033 12 5.7 12V10C4.7565 10 4.16978 9.99844 3.72827 9.96236L3.56541 11.9557ZM2.27453 11.6458C2.62237 11.823 3.02389 11.9115 3.56541 11.9557L3.72827 9.96236C3.30958 9.92815 3.20095 9.87315 3.18251 9.86376L2.27453 11.6458ZM0.854229 10.2255C1.16582 10.837 1.663 11.3342 2.27453 11.6458L3.18251 9.86376C2.94731 9.74392 2.75608 9.55269 2.63624 9.31749L0.854229 10.2255ZM0.544279 8.93459C0.588523 9.47612 0.676994 9.87763 0.854229 10.2255L2.63624 9.31749C2.62685 9.29905 2.57184 9.19041 2.53764 8.77173L0.544279 8.93459ZM0.5 6.8C0.5 7.70967 0.499992 8.39255 0.544279 8.93459L2.53764 8.77173C2.50156 8.33022 2.5 7.7435 2.5 6.8H0.5ZM0.5 5.2V6.8H2.5V5.2H0.5ZM0.544279 3.06541C0.499992 3.60745 0.5 4.29033 0.5 5.2H2.5C2.5 4.2565 2.50156 3.66978 2.53764 3.22827L0.544279 3.06541ZM0.854229 1.77453C0.676994 2.12237 0.588523 2.52388 0.544279 3.06541L2.53764 3.22827C2.57184 2.80959 2.62685 2.70095 2.63624 2.68251L0.854229 1.77453ZM2.27453 0.354229C1.663 0.665817 1.16582 1.163 0.854229 1.77453L2.63624 2.68251C2.75608 2.44731 2.94731 2.25608 3.18251 2.13624L2.27453 0.354229ZM3.56541 0.0442786C3.02388 0.0885227 2.62237 0.176994 2.27453 0.354229L3.18251 2.13624C3.20095 2.12685 3.30959 2.07184 3.72827 2.03764L3.56541 0.0442786ZM5.7 0C4.79033 0 4.10745 -7.92941e-06 3.56541 0.0442787L3.72827 2.03764C4.16978 2.00156 4.7565 2 5.7 2V0ZM-0.0367777 1.32054C-0.297693 1.83261 -0.403069 2.38019 -0.4524 2.98397C-0.500778 3.57609 -0.5 4.30642 -0.5 5.2H1.5C1.5 4.27341 1.50078 3.63862 1.54096 3.14684C1.58018 2.66673 1.65192 2.41166 1.74524 2.22852L-0.0367777 1.32054ZM1.82054 -0.536778C1.02085 -0.129316 0.370684 0.520851 -0.0367777 1.32054L1.74524 2.22852C1.96095 1.80516 2.30516 1.46095 2.72852 1.24524L1.82054 -0.536778ZM5.7 -1C4.80642 -1 4.07609 -1.00078 3.48397 -0.9524C2.88019 -0.903069 2.33261 -0.797693 1.82054 -0.536778L2.72852 1.24524C2.91166 1.15192 3.16673 1.08018 3.64684 1.04096C4.13862 1.00078 4.77341 1 5.7 1V-1ZM19.3 -1H5.7V1H19.3V-1ZM23.1795 -0.536778C22.6674 -0.797693 22.1198 -0.903069 21.516 -0.9524C20.9239 -1.00078 20.1936 -1 19.3 -1V1C20.2266 1 20.8614 1.00078 21.3532 1.04096C21.8333 1.08018 22.0883 1.15192 22.2715 1.24524L23.1795 -0.536778ZM25.0368 1.32054C24.6293 0.520852 23.9791 -0.129316 23.1795 -0.536778L22.2715 1.24524C22.6948 1.46095 23.039 1.80516 23.2548 2.22852L25.0368 1.32054ZM25.5 5.2C25.5 4.30642 25.5008 3.57609 25.4524 2.98397C25.4031 2.38019 25.2977 1.83261 25.0368 1.32054L23.2548 2.22852C23.3481 2.41166 23.4198 2.66673 23.459 3.14684C23.4992 3.63862 23.5 4.27341 23.5 5.2H25.5ZM25.5 6.8V5.2H23.5V6.8H25.5ZM25.0368 10.6795C25.2977 10.1674 25.4031 9.61981 25.4524 9.01603C25.5008 8.42391 25.5 7.69358 25.5 6.8H23.5C23.5 7.72659 23.4992 8.36138 23.459 8.85316C23.4198 9.33327 23.3481 9.58834 23.2548 9.77148L25.0368 10.6795ZM23.1795 12.5368C23.9791 12.1293 24.6293 11.4791 25.0368 10.6795L23.2548 9.77148C23.039 10.1948 22.6948 10.539 22.2715 10.7548L23.1795 12.5368ZM19.3 13C20.1936 13 20.9239 13.0008 21.516 12.9524C22.1198 12.9031 22.6674 12.7977 23.1795 12.5368L22.2715 10.7548C22.0883 10.8481 21.8333 10.9198 21.3532 10.959C20.8614 10.9992 20.2266 11 19.3 11V13ZM5.7 13H19.3V11H5.7V13ZM1.82054 12.5368C2.33261 12.7977 2.88019 12.9031 3.48397 12.9524C4.07609 13.0008 4.80642 13 5.7 13V11C4.77341 11 4.13862 10.9992 3.64684 10.959C3.16673 10.9198 2.91166 10.8481 2.72852 10.7548L1.82054 12.5368ZM-0.0367776 10.6795C0.370684 11.4791 1.02085 12.1293 1.82054 12.5368L2.72852 10.7548C2.30516 10.539 1.96095 10.1948 1.74524 9.77148L-0.0367776 10.6795ZM-0.5 6.8C-0.5 7.69358 -0.500778 8.42391 -0.4524 9.01603C-0.403069 9.61981 -0.297693 10.1674 -0.0367777 10.6795L1.74524 9.77148C1.65192 9.58834 1.58018 9.33327 1.54096 8.85316C1.50078 8.36138 1.5 7.72659 1.5 6.8H-0.5ZM-0.5 5.2V6.8H1.5V5.2H-0.5ZM25.2507 5.03145C25.6823 5.14251 26 5.53541 26 6H28C28 4.60075 27.043 3.42755 25.7493 3.09457L25.2507 5.03145ZM26.5 7.93699V4.06301H24.5V7.93699H26.5ZM26 6C26 6.46459 25.6823 6.85749 25.2507 6.96855L25.7493 8.90543C27.043 8.57245 28 7.39925 28 6H26Z" fill="white" mask="url(#path-1-inside-1_2407_15783)"/>
</g>
<rect x="2.5" y="2" width="20" height="8" rx="1.5" fill="white"/>
</svg>
