<svg width="15" height="10" viewBox="0 0 15 10" fill="none" xmlns="http://www.w3.org/2000/svg">
<path d="M12.9512 4.246C13.0647 4.3525 13.2397 4.353 13.3502 4.243L14.4142 3.179C14.5287 3.064 14.5292 2.8745 14.4112 2.763C12.6022 1.0505 10.1607 0 7.47322 0C4.78572 0 2.34422 1.0505 0.535223 2.763C0.417223 2.8745 0.417723 3.064 0.532223 3.179L1.59622 4.243C1.70672 4.353 1.88172 4.3525 1.99522 4.246C3.42972 2.9015 5.35672 2.077 7.47322 2.077C9.58972 2.077 11.5167 2.9015 12.9512 4.246Z" fill="white"/>
<path d="M10.5043 6.69645C10.6198 6.79945 10.7923 6.80045 10.9018 6.69095L11.9643 5.62845C12.0798 5.51295 12.0803 5.32045 11.9603 5.20995C10.7793 4.12445 9.20385 3.46145 7.47334 3.46145C5.74285 3.46145 4.16735 4.12445 2.98635 5.20995C2.86635 5.32045 2.86685 5.51295 2.98235 5.62845L4.04485 6.69095C4.15435 6.80045 4.32685 6.79945 4.44235 6.69645C5.24835 5.97695 6.31035 5.53845 7.47334 5.53845C8.63634 5.53845 9.69835 5.97695 10.5043 6.69645Z" fill="white"/>
<path d="M9.5082 7.6611C9.6337 7.7661 9.6327 7.9616 9.5167 8.0776L7.6787 9.9156C7.5662 10.0281 7.3832 10.0281 7.2707 9.9156L5.4327 8.0776C5.3167 7.9616 5.3152 7.7661 5.4412 7.6611C5.9917 7.2006 6.7007 6.9231 7.4747 6.9231C8.2487 6.9231 8.9572 7.2006 9.5082 7.6611Z" fill="white"/>
</svg>
